<?xml version="1.0" encoding="UTF-8"?>
<svg id="Layer_1" data-name="Layer 1" xmlns="http://www.w3.org/2000/svg" version="1.1" viewBox="0 0 1024 1024">
  <defs>
    <style>
      .cls-1 {
        fill: #ab162c;
        stroke-width: 0px;
      }
    </style>
  </defs>
  <path class="cls-1" d="M1003.2,542.53c1.09-1.1,2.19-2.2,3.28-3.3-3.34-5.12-6.13-10.7-10.09-15.27-48.68-56.1-109.73-95.97-174.06-131.25-89.28-48.95-184.75-78.18-285.84-90.91-107.68-13.55-214.54-13.4-320.33,13.08-55.79,13.97-108.38,35.21-151.48,75.11-52.43,48.53-63.1,108.96-27.01,170.55,13.98,23.86,31.9,46.38,51.74,65.69,63.93,62.22,141.73,102.56,223.71,135.53,2.89,1.16,6.31,1,11.96,1.81-3.74-4.29-5.34-6.5-7.3-8.32-18.85-17.5-38.42-34.28-56.49-52.54-28.2-28.49-51.4-60.75-58.28-101.18-9-52.93,15.29-92.86,54.82-124.64,49.09-39.47,107.92-53.95,168.77-61.21,79.29-9.47,157.55-.51,235.82,13.18,100.21,17.53,196.5,46.4,288.28,90.32,17.27,8.26,34.98,15.59,52.49,23.35ZM538.01,670.83c-1.13-.08-2.25-.15-3.38-.23-1.3-3.87-2.65-7.73-3.88-11.62-18.76-59.08-37.56-118.15-56.18-177.28-2.33-7.39-4.02-13.39-14.42-12.48-46.47,4.06-91.87,11.65-134.85,31.29-13.45,6.14-15.68,12.51-11.23,26.06,40.39,123.03,80.25,246.23,119.91,369.49,2.63,8.17,6.54,10.46,14.67,10.42,53.8-.28,107.61.14,161.41-.18,24.99-.15,19.9,5.22,28.79-21.3,33.88-100.99,67.36-202.12,100.94-303.22,7.9-23.78,15.56-47.64,23.74-72.72-7.3-1.92-12.91-3.73-18.64-4.86-44.15-8.7-88.39-16.98-132.45-26.11-9.6-1.99-12.87,1.15-15.54,9.68-13.02,41.62-26.56,83.08-39.94,124.59-6.29,19.5-12.62,38.98-18.94,58.48ZM824.38,326.4c22.52-67.87,45.26-136.37,68.07-205.1-2.85-.89-4.12-1.64-5.4-1.64-54.7-.19-109.39-.49-164.08-.02-3.69.03-9.21,5.32-10.66,9.33-7.21,19.83-13.43,40.02-19.82,60.15-8.3,26.11-16.43,52.28-24.29,77.34,52.26,20.06,103.12,39.57,156.19,59.94ZM182.86,120.37c14.28,43.66,27.77,85.47,42.02,127.02.87,2.55,7.95,4.68,11.81,4.22,33.69-4.02,67.24-9.15,100.95-12.94,18.96-2.13,38.14-2.35,58.47-3.51-10.86-34.65-21.74-68.14-31.73-101.89-3.11-10.52-8.2-14.45-19.35-14.33-49.6.54-99.21.23-148.82.29-3.59,0-7.17.59-13.34,1.13Z"/>
  <path class="cls-1" d="M1003.2,542.53c-17.51-7.76-35.22-15.09-52.49-23.35-91.78-43.92-188.08-72.79-288.28-90.32-78.27-13.69-156.53-22.65-235.82-13.18-60.85,7.27-119.68,21.75-168.77,61.21-39.53,31.78-63.82,71.72-54.82,124.64,6.87,40.43,30.08,72.69,58.28,101.18,18.08,18.26,37.65,35.04,56.49,52.54,1.96,1.82,3.56,4.03,7.3,8.32-5.65-.81-9.08-.65-11.96-1.81-81.97-32.97-159.78-73.31-223.71-135.53-19.84-19.31-37.75-41.82-51.74-65.69-36.09-61.59-25.42-122.02,27.01-170.55,43.1-39.89,95.69-61.14,151.48-75.11,105.78-26.48,212.64-26.64,320.33-13.08,101.09,12.72,196.56,41.96,285.84,90.91,64.34,35.27,125.39,75.15,174.06,131.25,3.97,4.57,6.76,10.16,10.09,15.27-1.09,1.1-2.19,2.2-3.28,3.3Z"/>
  <path class="cls-1" d="M538.01,670.83c6.31-19.49,12.65-38.98,18.94-58.48,13.38-41.51,26.92-82.97,39.94-124.59,2.67-8.52,5.94-11.67,15.54-9.68,44.06,9.13,88.3,17.41,132.45,26.11,5.74,1.13,11.34,2.94,18.64,4.86-8.18,25.09-15.84,48.94-23.74,72.72-33.57,101.1-67.05,202.22-100.94,303.22-8.9,26.52-3.8,21.15-28.79,21.3-53.8.31-107.61-.1-161.41.18-8.13.04-12.04-2.24-14.67-10.42-39.66-123.26-79.52-246.47-119.91-369.49-4.45-13.56-2.22-19.92,11.23-26.06,42.98-19.64,88.38-27.23,134.85-31.29,10.4-.91,12.09,5.08,14.42,12.48,18.62,59.13,37.42,118.2,56.18,177.28,1.24,3.89,2.59,7.75,3.88,11.62,1.13.08,2.25.15,3.38.23Z"/>
  <path class="cls-1" d="M824.38,326.4c-53.07-20.37-103.93-39.88-156.19-59.94,7.86-25.06,15.99-51.23,24.29-77.34,6.39-20.12,12.61-40.31,19.82-60.15,1.46-4.01,6.98-9.3,10.66-9.33,54.69-.47,109.39-.17,164.08.02,1.27,0,2.55.75,5.4,1.64-22.81,68.73-45.54,137.23-68.07,205.1Z"/>
  <path class="cls-1" d="M182.86,120.37c6.17-.54,9.76-1.13,13.34-1.13,49.61-.07,99.22.25,148.82-.29,11.15-.12,16.24,3.81,19.35,14.33,9.99,33.76,20.86,67.25,31.73,101.89-20.33,1.15-39.51,1.38-58.47,3.51-33.71,3.79-67.26,8.92-100.95,12.94-3.86.46-10.93-1.67-11.81-4.22-14.25-41.55-27.73-83.36-42.02-127.02Z"/>
</svg>